#!OML:ASF I:\Actors\actors\Patient Classification 1\Patient 1\Session 1\Subject1.ASF
:FULLY-SPECIFIED
:DEGREES
1284
root 0.37387 17.7176 7.60139 17.4131 -25.0922 -7.83373
lowerback 6.99942 -2.06229 3.92121
upperback 4.30688 -2.58058 5.80407
thorax 0.641877 -1.32452 3.9742
lowerneck -12.4894 6.09215 10.3756
upperneck 26.8697 4.34268 4.97378
head 10.9877 3.48966 0.616056
rclavicle -7.95139e-016 7.55382e-014
rhumerus 54.5082 73.279 -11.539
rradius 60.4333
rwrist -27.2963
rhand 19.1036 -31.7185
rfingers 7.12502
rthumb 43.6992 -55.7127
lclavicle -7.95139e-016 7.55382e-014
lhumerus 16.387 -79.344 39.7423
lradius 57.7976
lwrist 68.4837
lhand -15.5459 -5.97654
lfingers 7.12502
lthumb 10.6382 23.7342
rfemur -24.9281 23.5432 15.7754
rtibia 11.705
rfoot -7.45895 -3.92203
rtoes -8.55755
lfemur -8.11965 -20.1154 -9.06914
ltibia 2.43611
lfoot -24.4937 50.1377
ltoes 18.5494
1285
root 0.371583 17.7173 7.61817 17.6033 -25.5532 -7.79841
lowerback 7.01497 -2.30742 3.73808
upperback 4.30191 -2.92088 6.10333
thorax 0.668947 -1.50581 4.41429
lowerneck -12.136 6.67602 10.8932
upperneck 26.9262 5.25191 4.33993
head 11.0029 3.87482 0.42096
rclavicle -5.94366e-014 1.43125e-014
rhumerus 59.3921 73.2471 -7.08552
rradius 61.0059
rwrist -27.472
rhand 19.17 -31.596
rfingers 7.12502
rthumb 43.7611 -55.5674
lclavicle -5.94366e-014 1.43125e-014
lhumerus 14.2056 -79.773 41.0683
lradius 59.562
lwrist 68.9843
lhand -14.3994 -6.09411
lfingers 7.12502
lthumb 11.744 23.5567
rfemur -25.19 23.5875 15.6075
rtibia 11.7325
rfoot -7.42503 -3.6293
rtoes -8.44748
lfemur -8.29912 -19.3802 -9.16795
ltibia 2.65253
lfoot -24.3073 49.8471
ltoes 18.3766
1286
root 0.36937 17.7169 7.63008 17.8581 -25.7942 -7.75062
lowerback 7.01605 -2.51605 3.7142
upperback 4.29659 -3.20376 6.34727
thorax 0.694622 -1.65408 4.70316
lowerneck -11.8557 7.12492 11.4442
upperneck 26.774 5.99141 3.64202
head 10.9618 4.17565 0.172661
rclavicle 2.38542e-015 -1.98785e-014
rhumerus 62.0434 72.979 -4.9475
rradius 61.3563
rwrist -27.4987
rhand 19.2163 -31.5116
rfingers 7.12502
rthumb 43.8044 -55.4671
lclavicle 2.38542e-015 -1.98785e-014
lhumerus 14.7053 -80.3859 39.8726
lradius 61.2731
lwrist 69.433
lhand -13.2225 -6.34868
lfingers 7.12502
lthumb 12.8788 23.234
rfemur -25.5292 23.5594 15.3976
rtibia 11.7756
rfoot -7.41787 -3.44139
rtoes -8.22138
lfemur -8.61256 -18.8978 -9.17705
ltibia 2.8088
lfoot -24.0133 49.6681
ltoes 17.9591
1287
root 0.36757 17.7175 7.63626 18.0715 -25.8347 -7.63008
lowerback 7.07042 -2.66471 3.7933
upperback 4.32078 -3.39679 6.47497
thorax 0.705268 -1.75266 4.80825
lowerneck -11.6878 7.43069 12.1075
upperneck 26.4017 6.50669 2.93182
head 10.8664 4.38058 -0.127653
rclavicle -2.06736e-014 7.39479e-014
rhumerus 62.3319 72.5789 -5.27505
rradius 61.4244
rwrist -27.3591
rhand 19.1365 -31.3685
rfingers 7.12502
rthumb 43.7299 -55.3514
lclavicle -2.06736e-014 7.39479e-014
lhumerus 19.2521 -81.1482 34.861
lradius 62.6783
lwrist 69.8495
lhand -11.9435 -6.63988
lfingers 7.12502
lthumb 14.1115 22.8609
rfemur -25.833 23.5069 15.121
rtibia 11.7859
rfoot -7.4331 -3.4478
rtoes -7.92298
lfemur -8.98829 -18.5931 -9.19825
ltibia 2.95207
lfoot -23.739 49.4473
ltoes 17.6741
1288
root 0.365762 17.7207 7.63742 18.1923 -25.6844 -7.4874
lowerback 7.25789 -2.84731 3.88967
upperback 4.39188 -3.62556 6.55857
thorax 0.689685 -1.86816 4.86625
lowerneck -11.3823 7.69403 12.7802
upperneck 25.7519 6.99677 2.2131
head 10.6478 4.56637 -0.444706
rclavicle 6.08281e-014 -1.11319e-013
rhumerus 62.0215 72.0742 -6.33331
rradius 61.2572
rwrist -27.2122
rhand 18.7891 -31.201
rfingers 7.12502
rthumb 43.4054 -55.3021
lclavicle 6.08281e-014 -1.11319e-013
lhumerus 26.1097 -81.7086 27.7349
lradius 63.754
lwrist 70.1149
lhand -10.9647 -6.83412
lfingers 7.12502
lthumb 15.0545 22.5985
rfemur -25.9777 23.4228 14.9114
rtibia 11.7246
rfoot -7.44046 -3.67212
rtoes -8.06346
lfemur -9.34427 -18.3051 -9.2162
ltibia 3.11043
lfoot -23.225 49.088
ltoes 17.0965
1289
root 0.362482 17.7264 7.63367 18.2774 -25.3262 -7.24283
lowerback 7.48613 -3.13604 3.76224
upperback 4.50543 -4.00974 6.7252
thorax 0.726839 -2.06863 5.15041
lowerneck -11.1161 7.97464 13.1421
upperneck 24.9879 7.57713 1.50122
head 10.3896 4.76485 -0.697094
rclavicle -1.94809e-014 -5.08889e-014
rhumerus 62.3973 71.4699 -6.7492
rradius 60.9468
rwrist -27.0414
rhand 18.2681 -31.354
rfingers 7.12502
rthumb 42.9184 -55.6287
lclavicle -1.94809e-014 -5.08889e-014
lhumerus 34.1065 -81.9125 19.6976
lradius 64.4832
lwrist 69.6597
lhand -10.398 -7.42457
lfingers 7.12502
lthumb 15.6003 21.9663
rfemur -26.0943 23.2841 14.6288
rtibia 11.6199
rfoot -7.44263 -4.14482
rtoes -8.72656
lfemur -9.7866 -18.1365 -9.25653
ltibia 3.25801
lfoot -22.5743 48.6511
ltoes 16.494
1290
root 0.357527 17.7321 7.62599 18.3342 -24.779 -6.85036
lowerback 7.67295 -3.43511 3.49476
upperback 4.60846 -4.4184 6.88618
thorax 0.792085 -2.28444 5.50797
lowerneck -10.8923 8.16174 13.2804
upperneck 24.1938 8.03912 0.885341
head 10.1128 4.90277 -0.894707
rclavicle -8.3092e-014 4.29375e-014
rhumerus 62.4378 70.9 -7.42835
rradius 60.494
rwrist -26.82
rhand 17.5785 -31.8217
rfingers 7.12502
rthumb 42.2729 -56.3196
lclavicle -8.3092e-014 4.29375e-014
lhumerus 46.238 -81.9909 7.71458
lradius 64.909
lwrist 68.1329
lhand -10.8672 -9.11971
lfingers 7.12502
lthumb 15.1484 20.3059
rfemur -26.2387 23.0331 14.199
rtibia 11.5088
rfoot -7.41972 -4.76654
rtoes -9.33693
lfemur -10.3041 -18.1779 -9.36479
ltibia 3.34338
lfoot -21.9479 48.1753
ltoes 16.2154
1291
root 0.353896 17.7387 7.60726 18.1836 -24.1959 -6.17539
lowerback 8.13201 -3.51003 3.1752
upperback 4.70222 -4.50498 6.77186
thorax 0.65717 -2.33192 5.60191
lowerneck -11.1619 8.12615 13.5893
upperneck 23.6071 8.01303 0.476546
head 9.98107 4.86005 -1.08709
rclavicle 2.34566e-014 -1.59028e-015
rhumerus 59.8052 70.2697 -10.721
rradius 59.759
rwrist -26.577
rhand 16.734 -32.4166
rfingers 7.12502
rthumb 41.4813 -57.178
lclavicle 2.34566e-014 -1.59028e-015
lhumerus 58.7888 -80.8281 -4.27872
lradius 65.2523
lwrist 68.8665
lhand -8.57071 -7.41888
lfingers 7.12502
lthumb 17.3596 21.8259
rfemur -26.3779 22.7996 13.4518
rtibia 11.4815
rfoot -7.39446 -5.52247
rtoes -9.54892
lfemur -10.7734 -18.474 -9.74643
ltibia 3.39802
lfoot -21.3771 47.7893
ltoes 16.0329
1292
root 0.350845 17.7467 7.56642 17.8106 -23.6574 -5.1344
lowerback 8.99898 -3.54341 2.26726
upperback 4.68659 -4.54549 6.60233
thorax 0.221715 -2.36403 6.00146
lowerneck -11.3895 8.064 13.7076
upperneck 23.1768 7.9371 0.271104
head 9.87628 4.80281 -1.18505
rclavicle 4.85035e-014 -2.38542e-014
rhumerus 57.5728 69.8131 -13.5643
rradius 58.8508
rwrist -26.5777
rhand 15.6415 -33.0871
rfingers 7.12502
rthumb 40.4552 -58.1742
lclavicle 4.85035e-014 -2.38542e-014
lhumerus 69.5861 -79.5057 -14.303
lradius 65.3103
lwrist 69.2476
lhand -8.27847 -7.2252
lfingers 7.12502
lthumb 17.6409 21.9945
rfemur -26.7036 22.7202 12.1984
rtibia 11.6938
rfoot -7.41433 -6.50765
rtoes -9.64359
lfemur -11.2918 -19.0292 -10.4292
ltibia 3.48669
lfoot -20.9203 47.5708
ltoes 15.7926
1293
root 0.335984 17.7525 7.57901 18.702 -22.2733 -5.89314
lowerback 8.25886 -3.79944 3.47469
upperback 4.78675 -4.85955 6.90319
thorax 0.691952 -2.50474 5.60593
lowerneck -11.46 8.03875 13.5021
upperneck 22.6859 7.95316 0.285321
head 9.70046 4.78223 -1.152
rclavicle 4.81059e-014 3.73715e-014
rhumerus 56.5583 69.3978 -15.0651
rradius 57.8228
rwrist -26.8388
rhand 14.2069 -33.8327
rfingers 7.12502
rthumb 39.1046 -59.3227
lclavicle 4.81059e-014 3.73715e-014
lhumerus 76.8517 -77.9111 -20.5015
lradius 64.9813
lwrist 68.8825
lhand -9.33286 -8.3798
lfingers 7.12502
lthumb 16.626 20.9281
rfemur -26.9228 22.4919 13.011
rtibia 11.4757
rfoot -7.47647 -7.41469
rtoes -9.73985
lfemur -12.0043 -19.5214 -9.01136
ltibia 3.09105
lfoot -20.1088 47.2408
ltoes 14.7651
